<svg width="101" height="101" viewBox="0 0 101 101" fill="none" xmlns="http://www.w3.org/2000/svg">
<path d="M0.969666 5.82859C0.969666 3.1451 3.13762 0.969696 5.81192 0.969696H18.7246C21.3989 0.969696 23.5669 3.1451 23.5669 5.82859V18.7856C23.5669 21.4691 21.3989 23.6445 18.7246 23.6445H5.81192C3.13762 23.6445 0.969666 21.4691 0.969666 18.7856V5.82859Z" fill="#BA81C5"/>
<path d="M26.7706 5.82859C26.7706 3.1451 28.9386 0.969696 31.6129 0.969696H44.5256C47.1999 0.969696 49.3678 3.1451 49.3678 5.82859V18.7856C49.3678 21.4691 47.1999 23.6445 44.5256 23.6445H31.6129C28.9386 23.6445 26.7706 21.4691 26.7706 18.7856V5.82859Z" fill="#A0C35A"/>
<path d="M52.5715 5.82859C52.5715 3.1451 54.7395 0.969696 57.4138 0.969696H70.3265C73.0008 0.969696 75.1687 3.1451 75.1687 5.82859V18.7856C75.1687 21.4691 73.0008 23.6445 70.3265 23.6445H57.4138C54.7395 23.6445 52.5715 21.4691 52.5715 18.7856V5.82859Z" fill="#BA81C5"/>
<path d="M78.3725 5.82859C78.3725 3.1451 80.5404 0.969696 83.2147 0.969696H96.1274C98.8017 0.969696 100.97 3.1451 100.97 5.82859V18.7856C100.97 21.4691 98.8017 23.6445 96.1274 23.6445H83.2147C80.5404 23.6445 78.3725 21.4691 78.3725 18.7856V5.82859Z" fill="#B0C4EF"/>
<path d="M0.969715 31.7182C0.969715 29.0347 3.13767 26.8593 5.81197 26.8593H18.7247C21.399 26.8593 23.5669 29.0347 23.5669 31.7182V44.6752C23.5669 47.3587 21.399 49.5341 18.7247 49.5341H5.81197C3.13767 49.5341 0.969715 47.3587 0.969715 44.6752V31.7182Z" fill="#B0C4EF"/>
<path d="M26.7706 31.7182C26.7706 29.0347 28.9386 26.8593 31.6129 26.8593H44.5256C47.1999 26.8593 49.3678 29.0347 49.3678 31.7182V44.6752C49.3678 47.3587 47.1999 49.5341 44.5256 49.5341H31.6129C28.9386 49.5341 26.7706 47.3587 26.7706 44.6752V31.7182Z" fill="#F9DF6D"/>
<path d="M52.5715 31.7182C52.5715 29.0347 54.7395 26.8593 57.4138 26.8593H70.3265C73.0008 26.8593 75.1687 29.0347 75.1687 31.7182V44.6752C75.1687 47.3587 73.0008 49.5341 70.3265 49.5341H57.4138C54.7395 49.5341 52.5715 47.3587 52.5715 44.6752V31.7182Z" fill="#B0C4EF"/>
<path d="M78.3725 31.7182C78.3725 29.0347 80.5404 26.8593 83.2147 26.8593H96.1274C98.8017 26.8593 100.97 29.0347 100.97 31.7182V44.6752C100.97 47.3587 98.8017 49.5341 96.1274 49.5341H83.2147C80.5404 49.5341 78.3725 47.3587 78.3725 44.6752V31.7182Z" fill="#BA81C5"/>
<path d="M0.969715 57.4359C0.969715 54.7525 3.13767 52.5771 5.81197 52.5771H18.7247C21.399 52.5771 23.5669 54.7525 23.5669 57.4359V70.393C23.5669 73.0765 21.399 75.2519 18.7247 75.2519H5.81197C3.13767 75.2519 0.969715 73.0765 0.969715 70.393V57.4359Z" fill="#F9DF6D"/>
<path d="M26.7706 57.4359C26.7706 54.7525 28.9386 52.5771 31.6129 52.5771H44.5256C47.1999 52.5771 49.3678 54.7525 49.3678 57.4359V70.393C49.3678 73.0765 47.1999 75.2519 44.5256 75.2519H31.6129C28.9386 75.2519 26.7706 73.0765 26.7706 70.393V57.4359Z" fill="#A0C35A"/>
<path d="M52.5715 57.4359C52.5715 54.7525 54.7395 52.5771 57.4138 52.5771H70.3265C73.0008 52.5771 75.1687 54.7525 75.1687 57.4359V70.393C75.1687 73.0765 73.0008 75.2519 70.3265 75.2519H57.4138C54.7395 75.2519 52.5715 73.0765 52.5715 70.393V57.4359Z" fill="#BA81C5"/>
<path d="M78.3725 57.4359C78.3725 54.7525 80.5404 52.5771 83.2147 52.5771H96.1274C98.8017 52.5771 100.97 54.7525 100.97 57.4359V70.393C100.97 73.0765 98.8017 75.2519 96.1274 75.2519H83.2147C80.5404 75.2519 78.3725 73.0765 78.3725 70.393V57.4359Z" fill="#A0C35A"/>
<path d="M0.969715 83.1537C0.969715 80.4703 3.13767 78.2948 5.81197 78.2948H18.7247C21.399 78.2948 23.5669 80.4703 23.5669 83.1537V96.1108C23.5669 98.7943 21.399 100.97 18.7247 100.97H5.81197C3.13767 100.97 0.969715 98.7943 0.969715 96.1108V83.1537Z" fill="#B0C4EF"/>
<path d="M26.7706 83.1537C26.7706 80.4703 28.9386 78.2948 31.6129 78.2948H44.5256C47.1999 78.2948 49.3678 80.4703 49.3678 83.1537V96.1108C49.3678 98.7943 47.1999 100.97 44.5256 100.97H31.6129C28.9386 100.97 26.7706 98.7943 26.7706 96.1108V83.1537Z" fill="#F9DF6D"/>
<path d="M52.5715 83.1537C52.5715 80.4703 54.7395 78.2948 57.4138 78.2948H70.3265C73.0008 78.2948 75.1687 80.4703 75.1687 83.1537V96.1108C75.1687 98.7943 73.0008 100.97 70.3265 100.97H57.4138C54.7395 100.97 52.5715 98.7943 52.5715 96.1108V83.1537Z" fill="#A0C35A"/>
<path d="M78.3725 83.1537C78.3725 80.4703 80.5404 78.2948 83.2147 78.2948H96.1274C98.8017 78.2948 100.97 80.4703 100.97 83.1537V96.1108C100.97 98.7943 98.8017 100.97 96.1274 100.97H83.2147C80.5404 100.97 78.3725 98.7943 78.3725 96.1108V83.1537Z" fill="#F9DF6D"/>
</svg>
