<svg width="125" height="125" viewBox="0 0 125 125" fill="none" xmlns="http://www.w3.org/2000/svg">
<path d="M0.969666 6.9697C0.969666 3.65599 3.65596 0.969696 6.96967 0.969696H22.9697C26.2834 0.969696 28.9697 3.65599 28.9697 6.9697V22.9697C28.9697 26.2834 26.2834 28.9697 22.9697 28.9697H6.96967C3.65596 28.9697 0.969666 26.2834 0.969666 22.9697V6.9697Z" fill="#BA81C5"/>
<path d="M32.9394 6.9697C32.9394 3.65599 35.6257 0.969696 38.9394 0.969696H54.9394C58.2531 0.969696 60.9394 3.65599 60.9394 6.9697V22.9697C60.9394 26.2834 58.2531 28.9697 54.9394 28.9697H38.9394C35.6257 28.9697 32.9394 26.2834 32.9394 22.9697V6.9697Z" fill="#A0C35A"/>
<path d="M64.9091 6.9697C64.9091 3.65599 67.5954 0.969696 70.9091 0.969696H86.9091C90.2228 0.969696 92.9091 3.65599 92.9091 6.9697V22.9697C92.9091 26.2834 90.2228 28.9697 86.9091 28.9697H70.9091C67.5954 28.9697 64.9091 26.2834 64.9091 22.9697V6.9697Z" fill="#BA81C5"/>
<path d="M96.8788 6.9697C96.8788 3.65599 99.5651 0.969696 102.879 0.969696H118.879C122.192 0.969696 124.879 3.65599 124.879 6.9697V22.9697C124.879 26.2834 122.192 28.9697 118.879 28.9697H102.879C99.5651 28.9697 96.8788 26.2834 96.8788 22.9697V6.9697Z" fill="#B0C4EF"/>
<path d="M0.969727 38.9394C0.969727 35.6257 3.65602 32.9394 6.96973 32.9394H22.9697C26.2834 32.9394 28.9697 35.6257 28.9697 38.9394V54.9394C28.9697 58.2531 26.2834 60.9394 22.9697 60.9394H6.96973C3.65602 60.9394 0.969727 58.2531 0.969727 54.9394V38.9394Z" fill="#B0C4EF"/>
<path d="M32.9394 38.9394C32.9394 35.6257 35.6257 32.9394 38.9394 32.9394H54.9394C58.2531 32.9394 60.9394 35.6257 60.9394 38.9394V54.9394C60.9394 58.2531 58.2531 60.9394 54.9394 60.9394H38.9394C35.6257 60.9394 32.9394 58.2531 32.9394 54.9394V38.9394Z" fill="#F9DF6D"/>
<path d="M64.9091 38.9394C64.9091 35.6257 67.5954 32.9394 70.9091 32.9394H86.9091C90.2228 32.9394 92.9091 35.6257 92.9091 38.9394V54.9394C92.9091 58.2531 90.2228 60.9394 86.9091 60.9394H70.9091C67.5954 60.9394 64.9091 58.2531 64.9091 54.9394V38.9394Z" fill="#B0C4EF"/>
<path d="M96.8788 38.9394C96.8788 35.6257 99.5651 32.9394 102.879 32.9394H118.879C122.192 32.9394 124.879 35.6257 124.879 38.9394V54.9394C124.879 58.2531 122.192 60.9394 118.879 60.9394H102.879C99.5651 60.9394 96.8788 58.2531 96.8788 54.9394V38.9394Z" fill="#BA81C5"/>
<path d="M0.969727 70.697C0.969727 67.3833 3.65602 64.697 6.96973 64.697H22.9697C26.2834 64.697 28.9697 67.3833 28.9697 70.697V86.697C28.9697 90.0107 26.2834 92.697 22.9697 92.697H6.96973C3.65602 92.697 0.969727 90.0107 0.969727 86.697V70.697Z" fill="#F9DF6D"/>
<path d="M32.9394 70.697C32.9394 67.3833 35.6257 64.697 38.9394 64.697H54.9394C58.2531 64.697 60.9394 67.3833 60.9394 70.697V86.697C60.9394 90.0107 58.2531 92.697 54.9394 92.697H38.9394C35.6257 92.697 32.9394 90.0107 32.9394 86.697V70.697Z" fill="#A0C35A"/>
<path d="M64.9091 70.697C64.9091 67.3833 67.5954 64.697 70.9091 64.697H86.9091C90.2228 64.697 92.9091 67.3833 92.9091 70.697V86.697C92.9091 90.0107 90.2228 92.697 86.9091 92.697H70.9091C67.5954 92.697 64.9091 90.0107 64.9091 86.697V70.697Z" fill="#BA81C5"/>
<path d="M96.8788 70.697C96.8788 67.3833 99.5651 64.697 102.879 64.697H118.879C122.192 64.697 124.879 67.3833 124.879 70.697V86.697C124.879 90.0107 122.192 92.697 118.879 92.697H102.879C99.5651 92.697 96.8788 90.0107 96.8788 86.697V70.697Z" fill="#A0C35A"/>
<path d="M0.969727 102.455C0.969727 99.1408 3.65602 96.4545 6.96973 96.4545H22.9697C26.2834 96.4545 28.9697 99.1408 28.9697 102.455V118.455C28.9697 121.768 26.2834 124.455 22.9697 124.455H6.96973C3.65602 124.455 0.969727 121.768 0.969727 118.455V102.455Z" fill="#B0C4EF"/>
<path d="M32.9394 102.455C32.9394 99.1408 35.6257 96.4545 38.9394 96.4545H54.9394C58.2531 96.4545 60.9394 99.1408 60.9394 102.455V118.455C60.9394 121.768 58.2531 124.455 54.9394 124.455H38.9394C35.6257 124.455 32.9394 121.768 32.9394 118.455V102.455Z" fill="#F9DF6D"/>
<path d="M64.9091 102.455C64.9091 99.1408 67.5954 96.4545 70.9091 96.4545H86.9091C90.2228 96.4545 92.9091 99.1408 92.9091 102.455V118.455C92.9091 121.768 90.2228 124.455 86.9091 124.455H70.9091C67.5954 124.455 64.9091 121.768 64.9091 118.455V102.455Z" fill="#A0C35A"/>
<path d="M96.8788 102.455C96.8788 99.1408 99.5651 96.4545 102.879 96.4545H118.879C122.192 96.4545 124.879 99.1408 124.879 102.455V118.455C124.879 121.768 122.192 124.455 118.879 124.455H102.879C99.5651 124.455 96.8788 121.768 96.8788 118.455V102.455Z" fill="#F9DF6D"/>
</svg>
