<svg width="212" height="212" viewBox="0 0 212 212" fill="none" xmlns="http://www.w3.org/2000/svg">
<path d="M40 48C40 43.5817 43.5817 40 48 40H164C168.418 40 172 43.5817 172 48V164C172 168.418 168.418 172 164 172H48C43.5817 172 40 168.418 40 164V48Z" fill="#EEEEEE"/>
<rect x="43.9697" y="43.9697" width="28" height="28" rx="6" fill="#BA81C5"/>
<rect x="75.9394" y="43.9697" width="28" height="28" rx="6" fill="#A0C35A"/>
<rect x="107.909" y="43.9697" width="28" height="28" rx="6" fill="#BA81C5"/>
<rect x="139.879" y="43.9697" width="28" height="28" rx="6" fill="#B0C4EF"/>
<rect x="43.9697" y="75.9394" width="28" height="28" rx="6" fill="#B0C4EF"/>
<rect x="75.9394" y="75.9394" width="28" height="28" rx="6" fill="#F9DF6D"/>
<rect x="107.909" y="75.9394" width="28" height="28" rx="6" fill="#B0C4EF"/>
<rect x="139.879" y="75.9394" width="28" height="28" rx="6" fill="#BA81C5"/>
<rect x="43.9697" y="107.697" width="28" height="28" rx="6" fill="#F9DF6D"/>
<rect x="75.9394" y="107.697" width="28" height="28" rx="6" fill="#A0C35A"/>
<rect x="107.909" y="107.697" width="28" height="28" rx="6" fill="#BA81C5"/>
<rect x="139.879" y="107.697" width="28" height="28" rx="6" fill="#A0C35A"/>
<rect x="43.9697" y="139.455" width="28" height="28" rx="6" fill="#B0C4EF"/>
<rect x="75.9394" y="139.455" width="28" height="28" rx="6" fill="#F9DF6D"/>
<rect x="107.909" y="139.455" width="28" height="28" rx="6" fill="#A0C35A"/>
<rect x="139.879" y="139.455" width="28" height="28" rx="6" fill="#F9DF6D"/>
<rect x="40" y="4" width="47.3906" height="30" rx="3" fill="#EEEEEE"/>
<rect x="40.5" y="4.5" width="46.3906" height="29" rx="2.5" stroke="black" stroke-opacity="0.2"/>
<path d="M46.9688 22V14H47.8906V16.9531H47.9688C48.0365 16.849 48.1302 16.7161 48.25 16.5547C48.3724 16.3906 48.5469 16.2448 48.7734 16.1172C49.0026 15.987 49.3125 15.9219 49.7031 15.9219C50.2083 15.9219 50.6536 16.0482 51.0391 16.3008C51.4245 16.5534 51.7253 16.9115 51.9414 17.375C52.1576 17.8385 52.2656 18.3854 52.2656 19.0156C52.2656 19.651 52.1576 20.2018 51.9414 20.668C51.7253 21.1315 51.4258 21.4909 51.043 21.7461C50.6602 21.9987 50.2188 22.125 49.7188 22.125C49.3333 22.125 49.0247 22.0612 48.793 21.9336C48.5612 21.8034 48.3828 21.6562 48.2578 21.4922C48.1328 21.3255 48.0365 21.1875 47.9688 21.0781H47.8594V22H46.9688ZM47.875 19C47.875 19.4531 47.9414 19.8529 48.0742 20.1992C48.207 20.543 48.401 20.8125 48.6563 21.0078C48.9115 21.2005 49.224 21.2969 49.5938 21.2969C49.9792 21.2969 50.3008 21.1953 50.5586 20.9922C50.819 20.7865 51.0143 20.5104 51.1445 20.1641C51.2773 19.8151 51.3438 19.4271 51.3438 19C51.3438 18.5781 51.2786 18.1979 51.1484 17.8594C51.0208 17.5182 50.8268 17.2487 50.5664 17.0508C50.3086 16.8503 49.9844 16.75 49.5938 16.75C49.2188 16.75 48.9036 16.8451 48.6484 17.0352C48.3932 17.2227 48.2005 17.4857 48.0703 17.8242C47.9401 18.1602 47.875 18.5521 47.875 19ZM56.1133 22.125C55.5716 22.125 55.0964 21.9961 54.6875 21.7383C54.2813 21.4805 53.9635 21.1198 53.7344 20.6562C53.5078 20.1927 53.3945 19.651 53.3945 19.0312C53.3945 18.4062 53.5078 17.8607 53.7344 17.3945C53.9635 16.9284 54.2813 16.5664 54.6875 16.3086C55.0964 16.0508 55.5716 15.9219 56.1133 15.9219C56.6549 15.9219 57.1289 16.0508 57.5352 16.3086C57.944 16.5664 58.2617 16.9284 58.4883 17.3945C58.7174 17.8607 58.832 18.4062 58.832 19.0312C58.832 19.651 58.7174 20.1927 58.4883 20.6562C58.2617 21.1198 57.944 21.4805 57.5352 21.7383C57.1289 21.9961 56.6549 22.125 56.1133 22.125ZM56.1133 21.2969C56.5247 21.2969 56.8633 21.1914 57.1289 20.9805C57.3945 20.7695 57.5911 20.4922 57.7188 20.1484C57.8464 19.8047 57.9102 19.4323 57.9102 19.0312C57.9102 18.6302 57.8464 18.2565 57.7188 17.9102C57.5911 17.5638 57.3945 17.2839 57.1289 17.0703C56.8633 16.8568 56.5247 16.75 56.1133 16.75C55.7018 16.75 55.3633 16.8568 55.0977 17.0703C54.832 17.2839 54.6354 17.5638 54.5078 17.9102C54.3802 18.2565 54.3164 18.6302 54.3164 19.0312C54.3164 19.4323 54.3802 19.8047 54.5078 20.1484C54.6354 20.4922 54.832 20.7695 55.0977 20.9805C55.3633 21.1914 55.7018 21.2969 56.1133 21.2969ZM62.0049 22.1406C61.6247 22.1406 61.2796 22.069 60.9697 21.9258C60.6598 21.7799 60.4137 21.5703 60.2314 21.2969C60.0492 21.0208 59.958 20.6875 59.958 20.2969C59.958 19.9531 60.0257 19.6745 60.1611 19.4609C60.2965 19.2448 60.4775 19.0755 60.7041 18.9531C60.9307 18.8307 61.1807 18.7396 61.4541 18.6797C61.7301 18.6172 62.0075 18.5677 62.2861 18.5313C62.6507 18.4844 62.9463 18.4492 63.1729 18.4258C63.402 18.3997 63.5687 18.3568 63.6729 18.2969C63.7796 18.237 63.833 18.1328 63.833 17.9844V17.9531C63.833 17.5677 63.7275 17.2682 63.5166 17.0547C63.3083 16.8411 62.9919 16.7344 62.5674 16.7344C62.1273 16.7344 61.7822 16.8307 61.5322 17.0234C61.2822 17.2161 61.1064 17.4219 61.0049 17.6406L60.1299 17.3281C60.2861 16.9635 60.4945 16.6797 60.7549 16.4766C61.0179 16.2708 61.3044 16.1276 61.6143 16.0469C61.9268 15.9635 62.234 15.9219 62.5361 15.9219C62.7288 15.9219 62.9502 15.9453 63.2002 15.9922C63.4528 16.0365 63.6963 16.1289 63.9307 16.2695C64.1676 16.4102 64.3643 16.6224 64.5205 16.9062C64.6768 17.1901 64.7549 17.5703 64.7549 18.0469V22H63.833V21.1875H63.7861C63.7236 21.3177 63.6195 21.457 63.4736 21.6055C63.3278 21.7539 63.1338 21.8802 62.8916 21.9844C62.6494 22.0885 62.3538 22.1406 62.0049 22.1406ZM62.1455 21.3125C62.5101 21.3125 62.8174 21.2409 63.0674 21.0977C63.32 20.9544 63.5101 20.7695 63.6377 20.543C63.7679 20.3164 63.833 20.0781 63.833 19.8281V18.9844C63.7939 19.0312 63.708 19.0742 63.5752 19.1133C63.445 19.1497 63.2939 19.1823 63.1221 19.2109C62.9528 19.237 62.7874 19.2604 62.626 19.2812C62.4671 19.2995 62.3382 19.3151 62.2393 19.3281C61.9997 19.3594 61.7757 19.4102 61.5674 19.4805C61.3617 19.5482 61.195 19.651 61.0674 19.7891C60.9424 19.9245 60.8799 20.1094 60.8799 20.3437C60.8799 20.6641 60.9984 20.9062 61.2354 21.0703C61.4749 21.2318 61.7783 21.3125 62.1455 21.3125ZM66.4375 22V16H67.3281V16.9062H67.3906C67.5 16.6094 67.6979 16.3685 67.9844 16.1836C68.2708 15.9987 68.5938 15.9062 68.9531 15.9062C69.0208 15.9062 69.1055 15.9076 69.207 15.9102C69.3086 15.9128 69.3854 15.9167 69.4375 15.9219V16.8594C69.4063 16.8516 69.3346 16.8398 69.2227 16.8242C69.1133 16.806 68.9974 16.7969 68.875 16.7969C68.5833 16.7969 68.3229 16.8581 68.0938 16.9805C67.8672 17.1003 67.6875 17.2669 67.5547 17.4805C67.4245 17.6914 67.3594 17.9323 67.3594 18.2031V22H66.4375ZM72.6133 22.125C72.1133 22.125 71.6719 21.9987 71.2891 21.7461C70.9063 21.4909 70.6068 21.1315 70.3906 20.668C70.1745 20.2018 70.0664 19.651 70.0664 19.0156C70.0664 18.3854 70.1745 17.8385 70.3906 17.375C70.6068 16.9115 70.9076 16.5534 71.293 16.3008C71.6784 16.0482 72.1237 15.9219 72.6289 15.9219C73.0195 15.9219 73.3281 15.987 73.5547 16.1172C73.7839 16.2448 73.9583 16.3906 74.0781 16.5547C74.2005 16.7161 74.2956 16.849 74.3633 16.9531H74.4414V14H75.3633V22H74.4727V21.0781H74.3633C74.2956 21.1875 74.1992 21.3255 74.0742 21.4922C73.9492 21.6562 73.7708 21.8034 73.5391 21.9336C73.3073 22.0612 72.9987 22.125 72.6133 22.125ZM72.7383 21.2969C73.1081 21.2969 73.4206 21.2005 73.6758 21.0078C73.931 20.8125 74.125 20.543 74.2578 20.1992C74.3906 19.8529 74.457 19.4531 74.457 19C74.457 18.5521 74.3919 18.1602 74.2617 17.8242C74.1315 17.4857 73.9388 17.2227 73.6836 17.0352C73.4284 16.8451 73.1133 16.75 72.7383 16.75C72.3477 16.75 72.0221 16.8503 71.7617 17.0508C71.5039 17.2487 71.3099 17.5182 71.1797 17.8594C71.0521 18.1979 70.9883 18.5781 70.9883 19C70.9883 19.4271 71.0534 19.8151 71.1836 20.1641C71.3164 20.5104 71.5117 20.7865 71.7695 20.9922C72.0299 21.1953 72.3529 21.2969 72.7383 21.2969ZM80.6172 18.1406V19H77.1172V18.1406H80.6172Z" fill="black"/>
</svg>
