<svg width="132" height="132" viewBox="0 0 132 132" fill="none" xmlns="http://www.w3.org/2000/svg">
<rect x="3.96967" y="3.9697" width="28" height="28" rx="5.95455" fill="#BA81C5"/>
<rect x="35.9394" y="3.9697" width="28" height="28" rx="5.95455" fill="#A0C35A"/>
<rect x="67.9091" y="3.9697" width="28" height="28" rx="5.95455" fill="#BA81C5"/>
<rect x="99.8788" y="3.9697" width="28" height="28" rx="5.95455" fill="#B0C4EF"/>
<rect x="3.96973" y="35.9394" width="28" height="28" rx="5.95455" fill="#B0C4EF"/>
<rect x="35.9394" y="35.9394" width="28" height="28" rx="5.95455" fill="#F9DF6D"/>
<rect x="67.9091" y="35.9394" width="28" height="28" rx="5.95455" fill="#B0C4EF"/>
<rect x="99.8788" y="35.9394" width="28" height="28" rx="5.95455" fill="#BA81C5"/>
<rect x="3.96973" y="67.697" width="28" height="28" rx="5.95455" fill="#F9DF6D"/>
<rect x="35.9394" y="67.697" width="28" height="28" rx="5.95455" fill="#A0C35A"/>
<rect x="67.9091" y="67.697" width="28" height="28" rx="5.95455" fill="#BA81C5"/>
<rect x="99.8788" y="67.697" width="28" height="28" rx="5.95455" fill="#A0C35A"/>
<rect x="3.96973" y="99.4545" width="28" height="28" rx="5.95455" fill="#B0C4EF"/>
<rect x="35.9394" y="99.4545" width="28" height="28" rx="5.95455" fill="#F9DF6D"/>
<rect x="67.9091" y="99.4545" width="28" height="28" rx="5.95455" fill="#A0C35A"/>
<rect x="99.8788" y="99.4545" width="28" height="28" rx="5.95455" fill="#F9DF6D"/>
</svg>
